<svg width="53" height="52" viewBox="0 0 53 52" fill="none" xmlns="http://www.w3.org/2000/svg">
<ellipse cx="26.5" cy="26" rx="26.5" ry="26" fill="url(#paint0_angular_75_703)"/>
<path d="M15.2648 37.964C14.2577 36.1881 12.2436 32.446 12.2436 32.446C12.2436 32.2557 9.78898 27.4988 13.943 29.9724C15.1633 30.699 18.101 31.978 21.7075 33.444C22.4049 27.1435 22.2729 18.265 21.9096 11.5881C21.9047 11.5132 21.8998 11.4233 21.8951 11.3254C21.9 11.4126 21.9048 11.5002 21.9096 11.5881C21.9517 12.2414 21.9883 11.7621 21.8735 5.61711C21.7454 -1.23281 35.0373 25.7229 41.6993 40.057C42.6056 41.2748 41.5734 41.0718 40.944 40.8181C36.1247 39.0521 27.923 35.9704 21.7075 33.444C20.9168 40.5881 19.0598 44.4175 15.2648 37.964Z" fill="url(#paint1_linear_75_703)"/>
<path d="M21.8735 10.9448C21.8808 11.0708 21.888 11.1977 21.8951 11.3254M21.8951 11.3254C22.688 25.5348 22.4509 50.184 15.2648 37.964C14.2577 36.1881 12.2436 32.446 12.2436 32.446C12.2436 32.2557 9.78898 27.4988 13.943 29.9724C17.2663 31.9513 33.3283 38.0274 40.944 40.8181C41.5734 41.0718 42.6056 41.2748 41.6993 40.057C35.0373 25.7229 21.7454 -1.23281 21.8735 5.61711C22.0015 12.467 21.9412 12.2768 21.8951 11.3254Z" stroke="#0619CA" stroke-opacity="0.23"/>
<defs>
<radialGradient id="paint0_angular_75_703" cx="0" cy="0" r="1" gradientUnits="userSpaceOnUse" gradientTransform="translate(26.5 26) rotate(180) scale(16.4185 16.1087)">
<stop offset="0.00481915" stop-color="#0619CA" stop-opacity="0.23"/>
<stop offset="0.501655" stop-color="#CE09E6"/>
<stop offset="0.942708" stop-color="#0B1999" stop-opacity="0.23"/>
</radialGradient>
<linearGradient id="paint1_linear_75_703" x1="33.1267" y1="16.3915" x2="11.6142" y2="27.0316" gradientUnits="userSpaceOnUse">
<stop offset="0.103891"/>
<stop offset="0.947143" stop-color="#C421D8"/>
</linearGradient>
</defs>
</svg>
