<svg width="96" height="96" viewBox="0 0 96 96" fill="none" xmlns="http://www.w3.org/2000/svg">
<circle cx="48" cy="48" r="48" fill="#D9D9D9"/>
<circle cx="48" cy="48" r="48" fill="url(#paint0_angular_143_2012)"/>
<path d="M28.7395 66.1666C26.9254 63.0246 23.2973 56.404 23.2973 56.404C23.2973 56.0673 18.8756 47.6513 26.3585 52.0276C28.5566 53.3132 33.8486 55.5761 40.3451 58.1697C41.6013 47.0227 41.3635 31.3145 40.7091 19.5016C40.7004 19.3691 40.6916 19.2101 40.683 19.0369C40.6918 19.1911 40.7005 19.346 40.7091 19.5016C40.7849 20.6574 40.851 19.8095 40.6441 8.93756C40.4134 -3.18153 64.3568 44.5093 76.3573 69.8696C77.9899 72.0241 76.1306 71.6651 74.9968 71.2162C66.3156 68.0917 51.5414 62.6396 40.3451 58.1697C38.9208 70.8093 35.5757 77.5844 28.7395 66.1666Z" fill="url(#paint1_linear_143_2012)"/>
<path d="M40.6441 18.3635C40.6572 18.5864 40.6702 18.8109 40.683 19.0369M40.683 19.0369C42.1113 44.1765 41.6842 87.7866 28.7395 66.1666C26.9254 63.0246 23.2973 56.404 23.2973 56.404C23.2973 56.0673 18.8756 47.6513 26.3585 52.0276C32.3448 55.5287 61.2783 66.2788 74.9968 71.2162C76.1306 71.6651 77.9899 72.0241 76.3573 69.8696C64.3568 44.5093 40.4134 -3.18153 40.6441 8.93756C40.8747 21.0566 40.7661 20.7201 40.683 19.0369Z" stroke="#0619CA" stroke-opacity="0.23"/>
<defs>
<radialGradient id="paint0_angular_143_2012" cx="0" cy="0" r="1" gradientUnits="userSpaceOnUse" gradientTransform="translate(48 48) rotate(180) scale(29.7391)">
<stop stop-color="#0A06CA" stop-opacity="0.42"/>
<stop offset="0.25" stop-color="#616F39"/>
<stop offset="0.5" stop-color="#A7D129"/>
<stop offset="1" stop-color="#0A06CA" stop-opacity="0.42"/>
</radialGradient>
<linearGradient id="paint1_linear_143_2012" x1="60.9151" y1="28" x2="22.4406" y2="47.375" gradientUnits="userSpaceOnUse">
<stop offset="0.103891"/>
<stop offset="0.947143" stop-color="#A7D129"/>
</linearGradient>
</defs>
</svg>
